{
  "source": "C:\\Users\\Peter\\Desktop\\stuff\\MIUN\\quantitative_research\\video_compression\\videos\\HEVC_CLASS_B\\BQTerrace_1920x1080_60.y4m",
  "output": "C:\\Users\\Peter\\Desktop\\stuff\\MIUN\\quantitative_research\\video_compression\\compressed_videos\\HEVC_CLASS_B\\vp9\\1\\BQTerrace_1920x1080_60_vp9.webm",
  "codec": "vp9",
  "ok": "Input #0, yuv4mpegpipe, from 'C:\\Users\\Peter\\Desktop\\stuff\\MIUN\\quantitative_research\\video_compression\\videos\\HEVC_CLASS_B\\BQTerrace_1920x1080_60.y4m':\n  Duration: 00:00:10.00, start: 0.000000, bitrate: 1492994 kb/s\n  Stream #0:0: Video: rawvideo (I420 / 0x30323449), yuv420p(progressive), 1920x1080, 60 fps, 60 tbr, 60 tbn\n[out#0/webm @ 000001f2e7349a00] Codec AVOption b:a (set bitrate (in bits/s)) has not been used for any stream. The most likely reason is either wrong type (e.g. a video option with no video streams) or that it is a private option of some decoder which was not actually used for any stream.\nStream mapping:\n  Stream #0:0 -> #0:0 (rawvideo (native) -> vp9 (libvpx-vp9))\nPress [q] to stop, [?] for help\n[libvpx-vp9 @ 000001f2e734ce00] v1.15.2-100-g40561f514\nOutput #0, webm, to 'C:\\Users\\Peter\\Desktop\\stuff\\MIUN\\quantitative_research\\video_compression\\compressed_videos\\HEVC_CLASS_B\\vp9\\1\\BQTerrace_1920x1080_60_vp9.webm':\n  Metadata:\n    encoder         : Lavf62.3.100\n  Stream #0:0: Video: vp9, yuv420p(tv, progressive), 1920x1080, q=2-31, 1000 kb/s, 60 fps, 1k tbn\n    Metadata:\n      encoder         : Lavc62.11.100 libvpx-vp9\n    Side data:\n      cpb: bitrate max/min/avg: 0/0/0 buffer size: 1000000 vbv_delay: N/A\nframe=    0 fps=0.0 q=0.0 size=       0KiB time=N/A bitrate=N/A speed=N/A elapsed=0:00:00.51    \nframe=    0 fps=0.0 q=0.0 size=       0KiB time=N/A bitrate=N/A speed=N/A elapsed=0:00:01.08    \nframe=    3 fps=1.6 q=60.0 size=       0KiB time=00:00:00.03 bitrate= 115.4kbits/s speed=0.0181x elapsed=0:00:01.84    \nframe=    6 fps=2.3 q=58.0 size=       0KiB time=00:00:00.10 bitrate=  38.5kbits/s speed=0.0385x elapsed=0:00:02.60    \nframe=    9 fps=2.8 q=54.0 size=       0KiB time=00:00:00.15 bitrate=  25.7kbits/s speed=0.0465x elapsed=0:00:03.22    \nframe=   11 fps=2.9 q=55.0 size=       0KiB time=00:00:00.18 bitrate=  21.0kbits/s speed=0.0476x elapsed=0:00:03.84    \nframe=   13 fps=2.9 q=49.0 size=       0KiB time=00:00:00.21 bitrate=  17.8kbits/s speed=0.0483x elapsed=0:00:04.49    \nframe=   15 fps=3.0 q=53.0 size=       0KiB time=00:00:00.25 bitrate=  15.4kbits/s speed=0.0493x elapsed=0:00:05.07    \nframe=   18 fps=3.1 q=54.0 size=       0KiB time=00:00:00.28 bitrate=  13.6kbits/s speed=0.0495x elapsed=0:00:05.72    \nframe=   20 fps=3.1 q=55.0 size=       0KiB time=00:00:00.31 bitrate=  12.2kbits/s speed=0.0498x elapsed=0:00:06.35    \nframe=   22 fps=3.1 q=55.0 size=       0KiB time=00:00:00.36 bitrate=  10.5kbits/s speed=0.0524x elapsed=0:00:07.00    \nframe=   24 fps=3.1 q=55.0 size=       0KiB time=00:00:00.40 bitrate=   9.6kbits/s speed=0.0524x elapsed=0:00:07.63    \nframe=   27 fps=3.3 q=54.0 size=       0KiB time=00:00:00.43 bitrate=   8.9kbits/s speed=0.0522x elapsed=0:00:08.30    \nframe=   29 fps=3.2 q=54.0 size=       0KiB time=00:00:00.48 bitrate=   8.0kbits/s speed=0.0539x elapsed=0:00:08.96    \nframe=   31 fps=3.2 q=54.0 size=       0KiB time=00:00:00.51 bitrate=   7.4kbits/s speed=0.0536x elapsed=0:00:09.63    \nframe=   33 fps=3.2 q=55.0 size=       0KiB time=00:00:00.55 bitrate=   7.0kbits/s speed=0.0538x elapsed=0:00:10.22    \nframe=   35 fps=3.2 q=54.0 size=       0KiB time=00:00:00.58 bitrate=   6.6kbits/s speed=0.0537x elapsed=0:00:10.86    \nframe=   36 fps=3.1 q=56.0 size=       0KiB time=00:00:00.60 bitrate=   6.4kbits/s speed=0.0522x elapsed=0:00:11.49    \nframe=   39 fps=3.2 q=53.0 size=       0KiB time=00:00:00.63 bitrate=   6.1kbits/s speed=0.0516x elapsed=0:00:12.27    \nframe=   41 fps=3.1 q=54.0 size=       0KiB time=00:00:00.68 bitrate=   5.6kbits/s speed=0.0522x elapsed=0:00:13.09    \nframe=   42 fps=3.1 q=55.0 size=       0KiB time=00:00:00.70 bitrate=   5.5kbits/s speed=0.0513x elapsed=0:00:13.64    \nframe=   44 fps=3.1 q=56.0 size=       0KiB time=00:00:00.73 bitrate=   5.2kbits/s speed=0.0517x elapsed=0:00:14.19    \nframe=   45 fps=3.1 q=55.0 size=       0KiB time=00:00:00.75 bitrate=   5.1kbits/s speed=0.0509x elapsed=0:00:14.72    \nframe=   47 fps=3.1 q=55.0 size=       0KiB time=00:00:00.78 bitrate=   4.9kbits/s speed=0.0514x elapsed=0:00:15.25    \nframe=   48 fps=3.0 q=56.0 size=       0KiB time=00:00:00.80 bitrate=   4.8kbits/s speed=0.0507x elapsed=0:00:15.78    \nframe=   48 fps=2.9 q=56.0 size=       0KiB time=00:00:00.80 bitrate=   4.8kbits/s speed=0.049x elapsed=0:00:16.31    \nframe=   50 fps=3.0 q=55.0 size=       0KiB time=00:00:00.83 bitrate=   4.6kbits/s speed=0.0495x elapsed=0:00:16.83    \nframe=   51 fps=2.9 q=54.0 size=       0KiB time=00:00:00.85 bitrate=   4.5kbits/s speed=0.049x elapsed=0:00:17.36    \nframe=   53 fps=3.0 q=54.0 size=       0KiB time=00:00:00.88 bitrate=   4.4kbits/s speed=0.0494x elapsed=0:00:17.89    \nframe=   55 fps=3.0 q=55.0 size=       0KiB time=00:00:00.90 bitrate=   4.3kbits/s speed=0.0489x elapsed=0:00:18.42    \nframe=   56 fps=3.0 q=55.0 size=       0KiB time=00:00:00.93 bitrate=   4.1kbits/s speed=0.0492x elapsed=0:00:18.95    \nframe=   58 fps=3.0 q=56.0 size=       0KiB time=00:00:00.95 bitrate=   4.1kbits/s speed=0.0488x elapsed=0:00:19.48    \nframe=   59 fps=2.9 q=55.0 size=       0KiB time=00:00:00.98 bitrate=   3.9kbits/s speed=0.0491x elapsed=0:00:20.02    \nframe=   60 fps=2.9 q=56.0 size=       0KiB time=00:00:01.00 bitrate=   3.8kbits/s speed=0.0486x elapsed=0:00:20.56    \nframe=   62 fps=2.9 q=55.0 size=       0KiB time=00:00:01.01 bitrate=   3.8kbits/s speed=0.0481x elapsed=0:00:21.12    \nframe=   63 fps=2.9 q=52.0 size=       0KiB time=00:00:01.05 bitrate=   3.7kbits/s speed=0.0485x elapsed=0:00:21.64    \nframe=   64 fps=2.9 q=54.0 size=       0KiB time=00:00:01.06 bitrate=   3.6kbits/s speed=0.0481x elapsed=0:00:22.17    \nframe=   66 fps=2.9 q=55.0 size=       0KiB time=00:00:01.10 bitrate=   3.5kbits/s speed=0.0485x elapsed=0:00:22.69    \nframe=   67 fps=2.9 q=54.0 size=       0KiB time=00:00:01.11 bitrate=   3.4kbits/s speed=0.0481x elapsed=0:00:23.22    \nframe=   69 fps=2.9 q=55.0 size=       0KiB time=00:00:01.15 bitrate=   3.3kbits/s speed=0.0484x elapsed=0:00:23.75    \nframe=   71 fps=2.9 q=55.0 size=       0KiB time=00:00:01.18 bitrate=   3.3kbits/s speed=0.0487x elapsed=0:00:24.28    \nframe=   72 fps=2.9 q=56.0 size=       0KiB time=00:00:01.20 bitrate=   3.2kbits/s speed=0.0484x elapsed=0:00:24.81    \nframe=   72 fps=2.8 q=56.0 size=       0KiB time=00:00:01.20 bitrate=   3.2kbits/s speed=0.0474x elapsed=0:00:25.34    \nframe=   74 fps=2.9 q=57.0 size=       0KiB time=00:00:01.23 bitrate=   3.1kbits/s speed=0.0477x elapsed=0:00:25.85    \nframe=   76 fps=2.9 q=54.0 size=       0KiB time=00:00:01.26 bitrate=   3.0kbits/s speed=0.048x elapsed=0:00:26.39    \nframe=   77 fps=2.9 q=54.0 size=       0KiB time=00:00:01.28 bitrate=   3.0kbits/s speed=0.0477x elapsed=0:00:26.92    \nframe=   79 fps=2.9 q=56.0 size=       0KiB time=00:00:01.31 bitrate=   2.9kbits/s speed=0.048x elapsed=0:00:27.45    \nframe=   80 fps=2.9 q=56.0 size=       0KiB time=00:00:01.33 bitrate=   2.9kbits/s speed=0.0476x elapsed=0:00:28.00    \nframe=   82 fps=2.9 q=56.0 size=       0KiB time=00:00:01.36 bitrate=   2.8kbits/s speed=0.0479x elapsed=0:00:28.53    \nframe=   84 fps=2.9 q=56.0 size=       0KiB time=00:00:01.40 bitrate=   2.7kbits/s speed=0.0482x elapsed=0:00:29.06    \nframe=   85 fps=2.9 q=48.0 size=       0KiB time=00:00:01.41 bitrate=   2.7kbits/s speed=0.0479x elapsed=0:00:29.60    \nframe=   86 fps=2.9 q=55.0 size=       0KiB time=00:00:01.43 bitrate=   2.7kbits/s speed=0.0476x elapsed=0:00:30.12    \nframe=   88 fps=2.9 q=53.0 size=       0KiB time=00:00:01.46 bitrate=   2.6kbits/s speed=0.0478x elapsed=0:00:30.66    \nframe=   89 fps=2.9 q=53.0 size=       0KiB time=00:00:01.48 bitrate=   2.6kbits/s speed=0.0475x elapsed=0:00:31.20    \nframe=   90 fps=2.8 q=54.0 size=       0KiB time=00:00:01.50 bitrate=   2.6kbits/s speed=0.0473x elapsed=0:00:31.73    \nframe=   92 fps=2.9 q=54.0 size=       0KiB time=00:00:01.51 bitrate=   2.5kbits/s speed=0.047x elapsed=0:00:32.26    \nframe=   92 fps=2.8 q=54.0 size=       0KiB time=00:00:01.53 bitrate=   2.5kbits/s speed=0.0467x elapsed=0:00:32.80    \nframe=   94 fps=2.8 q=54.0 size=       0KiB time=00:00:01.56 bitrate=   2.5kbits/s speed=0.047x elapsed=0:00:33.34    \nframe=   95 fps=2.8 q=54.0 size=       0KiB time=00:00:01.58 bitrate=   2.4kbits/s speed=0.0467x elapsed=0:00:33.89    \nframe=   96 fps=2.8 q=54.0 size=       0KiB time=00:00:01.60 bitrate=   2.4kbits/s speed=0.0465x elapsed=0:00:34.42    \nframe=   97 fps=2.8 q=47.0 size=       0KiB time=00:00:01.61 bitrate=   2.4kbits/s speed=0.0462x elapsed=0:00:34.95    \nframe=   98 fps=2.8 q=54.0 size=       0KiB time=00:00:01.63 bitrate=   2.4kbits/s speed=0.046x elapsed=0:00:35.49    \nframe=  100 fps=2.8 q=53.0 size=       0KiB time=00:00:01.66 bitrate=   2.3kbits/s speed=0.0462x elapsed=0:00:36.04    \nframe=  101 fps=2.8 q=54.0 size=       0KiB time=00:00:01.68 bitrate=   2.3kbits/s speed=0.046x elapsed=0:00:36.58    \nframe=  102 fps=2.7 q=55.0 size=       0KiB time=00:00:01.70 bitrate=   2.3kbits/s speed=0.0458x elapsed=0:00:37.11    \nframe=  103 fps=2.7 q=47.0 size=       0KiB time=00:00:01.71 bitrate=   2.2kbits/s speed=0.0456x elapsed=0:00:37.64    \nframe=  104 fps=2.7 q=55.0 size=       0KiB time=00:00:01.73 bitrate=   2.2kbits/s speed=0.0454x elapsed=0:00:38.18    \nframe=  106 fps=2.7 q=55.0 size=       0KiB time=00:00:01.76 bitrate=   2.2kbits/s speed=0.0456x elapsed=0:00:38.71    \nframe=  107 fps=2.7 q=55.0 size=       0KiB time=00:00:01.78 bitrate=   2.2kbits/s speed=0.0454x elapsed=0:00:39.25    \nframe=  108 fps=2.7 q=55.0 size=       0KiB time=00:00:01.80 bitrate=   2.1kbits/s speed=0.0452x elapsed=0:00:39.78    \nframe=  109 fps=2.7 q=48.0 size=       0KiB time=00:00:01.81 bitrate=   2.1kbits/s speed=0.0451x elapsed=0:00:40.30    \nframe=  110 fps=2.7 q=55.0 size=       0KiB time=00:00:01.83 bitrate=   2.1kbits/s speed=0.0449x elapsed=0:00:40.83    \nframe=  112 fps=2.7 q=53.0 size=       0KiB time=00:00:01.86 bitrate=   2.1kbits/s speed=0.0451x elapsed=0:00:41.37    \nframe=  114 fps=2.7 q=54.0 size=       0KiB time=00:00:01.90 bitrate=   2.0kbits/s speed=0.0453x elapsed=0:00:41.91    \nframe=  115 fps=2.7 q=46.0 size=       0KiB time=00:00:01.91 bitrate=   2.0kbits/s speed=0.0452x elapsed=0:00:42.43    \nframe=  116 fps=2.7 q=54.0 size=       0KiB time=00:00:01.93 bitrate=   2.0kbits/s speed=0.045x elapsed=0:00:42.97    \nframe=  118 fps=2.7 q=53.0 size=       0KiB time=00:00:01.96 bitrate=   2.0kbits/s speed=0.0452x elapsed=0:00:43.49    \nframe=  119 fps=2.7 q=53.0 size=       0KiB time=00:00:01.98 bitrate=   1.9kbits/s speed=0.045x elapsed=0:00:44.03    \nframe=  120 fps=2.7 q=54.0 size=       0KiB time=00:00:02.00 bitrate=   1.9kbits/s speed=0.0449x elapsed=0:00:44.56    \nframe=  122 fps=2.7 q=54.0 size=       0KiB time=00:00:02.03 bitrate=   1.9kbits/s speed=0.0451x elapsed=0:00:45.10    \nframe=  123 fps=2.7 q=52.0 size=       0KiB time=00:00:02.05 bitrate=   1.9kbits/s speed=0.0449x elapsed=0:00:45.65    \nframe=  124 fps=2.7 q=52.0 size=       0KiB time=00:00:02.06 bitrate=   1.9kbits/s speed=0.0447x elapsed=0:00:46.20    \nframe=  126 fps=2.7 q=53.0 size=       0KiB time=00:00:02.10 bitrate=   1.8kbits/s speed=0.0449x elapsed=0:00:46.73    \nframe=  128 fps=2.7 q=54.0 size=       0KiB time=00:00:02.13 bitrate=   1.8kbits/s speed=0.0451x elapsed=0:00:47.29    \nframe=  128 fps=2.7 q=54.0 size=       0KiB time=00:00:02.13 bitrate=   1.8kbits/s speed=0.0446x elapsed=0:00:47.81    \nframe=  129 fps=2.7 q=45.0 size=       0KiB time=00:00:02.15 bitrate=   1.8kbits/s speed=0.0444x elapsed=0:00:48.37    \nframe=  130 fps=2.7 q=52.0 size=     256KiB time=00:00:02.16 bitrate= 967.9kbits/s speed=0.0443x elapsed=0:00:48.92    \nframe=  132 fps=2.7 q=53.0 size=     256KiB time=00:00:02.20 bitrate= 953.3kbits/s speed=0.0445x elapsed=0:00:49.45    \nframe=  134 fps=2.7 q=53.0 size=     256KiB time=00:00:02.23 bitrate= 939.0kbits/s speed=0.0447x elapsed=0:00:49.99    \nframe=  135 fps=2.7 q=53.0 size=     256KiB time=00:00:02.25 bitrate= 932.1kbits/s speed=0.0445x elapsed=0:00:50.53    \nframe=  136 fps=2.7 q=53.0 size=     256KiB time=00:00:02.26 bitrate= 925.2kbits/s speed=0.0444x elapsed=0:00:51.06    \nframe=  138 fps=2.7 q=53.0 size=     256KiB time=00:00:02.30 bitrate= 911.8kbits/s speed=0.0446x elapsed=0:00:51.60    \nframe=  139 fps=2.7 q=53.0 size=     256KiB time=00:00:02.31 bitrate= 905.2kbits/s speed=0.0444x elapsed=0:00:52.13    \nframe=  140 fps=2.7 q=43.0 size=     256KiB time=00:00:02.33 bitrate= 898.8kbits/s speed=0.0443x elapsed=0:00:52.67    \nframe=  142 fps=2.7 q=49.0 size=     256KiB time=00:00:02.36 bitrate= 886.1kbits/s speed=0.0445x elapsed=0:00:53.21    \nframe=  143 fps=2.7 q=50.0 size=     256KiB time=00:00:02.38 bitrate= 879.9kbits/s speed=0.0443x elapsed=0:00:53.75    \nframe=  144 fps=2.7 q=50.0 size=     256KiB time=00:00:02.40 bitrate= 873.8kbits/s speed=0.0442x elapsed=0:00:54.28    \nframe=  145 fps=2.6 q=51.0 size=     256KiB time=00:00:02.41 bitrate= 867.8kbits/s speed=0.0441x elapsed=0:00:54.82    \nframe=  147 fps=2.7 q=51.0 size=     256KiB time=00:00:02.45 bitrate= 856.0kbits/s speed=0.0443x elapsed=0:00:55.34    \nframe=  149 fps=2.7 q=51.0 size=     256KiB time=00:00:02.48 bitrate= 844.5kbits/s speed=0.0444x elapsed=0:00:55.88    \nframe=  150 fps=2.7 q=52.0 size=     256KiB time=00:00:02.50 bitrate= 838.9kbits/s speed=0.0443x elapsed=0:00:56.42    \nframe=  151 fps=2.7 q=51.0 size=     256KiB time=00:00:02.51 bitrate= 833.3kbits/s speed=0.0442x elapsed=0:00:56.96    \nframe=  152 fps=2.6 q=44.0 size=     256KiB time=00:00:02.53 bitrate= 827.8kbits/s speed=0.0441x elapsed=0:00:57.50    \nframe=  153 fps=2.6 q=51.0 size=     256KiB time=00:00:02.55 bitrate= 822.4kbits/s speed=0.0439x elapsed=0:00:58.05    \nframe=  155 fps=2.6 q=50.0 size=     256KiB time=00:00:02.58 bitrate= 811.8kbits/s speed=0.0441x elapsed=0:00:58.58    \nframe=  156 fps=2.6 q=50.0 size=     256KiB time=00:00:02.60 bitrate= 806.6kbits/s speed=0.044x elapsed=0:00:59.13    \nframe=  158 fps=2.6 q=51.0 size=     256KiB time=00:00:02.63 bitrate= 796.4kbits/s speed=0.0441x elapsed=0:00:59.68    \nframe=  160 fps=2.7 q=51.0 size=     256KiB time=00:00:02.66 bitrate= 786.4kbits/s speed=0.0442x elapsed=0:01:00.29    \nframe=  162 fps=2.7 q=51.0 size=     256KiB time=00:00:02.70 bitrate= 776.7kbits/s speed=0.0443x elapsed=0:01:00.88    \nframe=  164 fps=2.7 q=43.0 size=     256KiB time=00:00:02.73 bitrate= 767.3kbits/s speed=0.0444x elapsed=0:01:01.58    \nframe=  167 fps=2.7 q=49.0 size=     256KiB time=00:00:02.78 bitrate= 753.5kbits/s speed=0.0448x elapsed=0:01:02.18    \nframe=  170 fps=2.7 q=50.0 size=     256KiB time=00:00:02.83 bitrate= 740.2kbits/s speed=0.0452x elapsed=0:01:02.74    \nframe=  173 fps=2.7 q=51.0 size=     256KiB time=00:00:02.86 bitrate= 731.6kbits/s speed=0.0452x elapsed=0:01:03.43    \nframe=  175 fps=2.7 q=50.0 size=     256KiB time=00:00:02.91 bitrate= 719.0kbits/s speed=0.0454x elapsed=0:01:04.20    \nframe=  178 fps=2.7 q=50.0 size=     256KiB time=00:00:02.96 bitrate= 706.9kbits/s speed=0.0458x elapsed=0:01:04.77    \nframe=  181 fps=2.8 q=50.0 size=     256KiB time=00:00:03.00 bitrate= 699.1kbits/s speed=0.0458x elapsed=0:01:05.47    \nframe=  183 fps=2.8 q=51.0 size=     256KiB time=00:00:03.05 bitrate= 687.6kbits/s speed=0.0462x elapsed=0:01:06.04    \nframe=  186 fps=2.8 q=52.0 size=     256KiB time=00:00:03.10 bitrate= 676.5kbits/s speed=0.0465x elapsed=0:01:06.64    \nframe=  188 fps=2.8 q=43.0 size=     256KiB time=00:00:03.13 bitrate= 669.3kbits/s speed=0.0465x elapsed=0:01:07.37    \nframe=  191 fps=2.8 q=50.0 size=     256KiB time=00:00:03.18 bitrate= 658.8kbits/s speed=0.0469x elapsed=0:01:07.92    \nframe=  194 fps=2.8 q=51.0 size=     256KiB time=00:00:03.23 bitrate= 648.6kbits/s speed=0.0471x elapsed=0:01:08.59    \nframe=  197 fps=2.8 q=51.0 size=     256KiB time=00:00:03.28 bitrate= 638.7kbits/s speed=0.0474x elapsed=0:01:09.26    \nframe=  199 fps=2.9 q=51.0 size=     256KiB time=00:00:03.31 bitrate= 632.3kbits/s speed=0.0475x elapsed=0:01:09.79    \nframe=  202 fps=2.9 q=50.0 size=     256KiB time=00:00:03.35 bitrate= 626.0kbits/s speed=0.0476x elapsed=0:01:10.34    \nframe=  204 fps=2.9 q=50.0 size=     256KiB time=00:00:03.40 bitrate= 616.8kbits/s speed=0.0479x elapsed=0:01:10.91    \nframe=  208 fps=2.9 q=50.0 size=     256KiB time=00:00:03.46 bitrate= 604.9kbits/s speed=0.0485x elapsed=0:01:11.48    \nframe=  211 fps=2.9 q=51.0 size=     256KiB time=00:00:03.51 bitrate= 596.3kbits/s speed=0.0488x elapsed=0:01:12.02    \nframe=  213 fps=2.9 q=51.0 size=     256KiB time=00:00:03.55 bitrate= 590.7kbits/s speed=0.0489x elapsed=0:01:12.59    \nframe=  215 fps=2.9 q=50.0 size=     256KiB time=00:00:03.58 bitrate= 585.3kbits/s speed=0.049x elapsed=0:01:13.17    \nframe=  217 fps=2.9 q=50.0 size=     256KiB time=00:00:03.61 bitrate= 579.9kbits/s speed=0.0491x elapsed=0:01:13.69    \nframe=  220 fps=3.0 q=52.0 size=     256KiB time=00:00:03.66 bitrate= 572.0kbits/s speed=0.0494x elapsed=0:01:14.20    \nframe=  223 fps=3.0 q=52.0 size=     256KiB time=00:00:03.71 bitrate= 564.3kbits/s speed=0.0497x elapsed=0:01:14.75    \nframe=  225 fps=3.0 q=52.0 size=     256KiB time=00:00:03.75 bitrate= 559.2kbits/s speed=0.0498x elapsed=0:01:15.32    \nframe=  228 fps=3.0 q=51.0 size=     256KiB time=00:00:03.80 bitrate= 551.9kbits/s speed=0.0501x elapsed=0:01:15.90    \nframe=  230 fps=3.0 q=51.0 size=     256KiB time=00:00:03.83 bitrate= 547.1kbits/s speed=0.0502x elapsed=0:01:16.43    \nframe=  233 fps=3.0 q=52.0 size=     256KiB time=00:00:03.88 bitrate= 540.0kbits/s speed=0.0505x elapsed=0:01:16.95    \nframe=  235 fps=3.0 q=52.0 size=     256KiB time=00:00:03.91 bitrate= 535.4kbits/s speed=0.0506x elapsed=0:01:17.48    \nframe=  238 fps=3.1 q=53.0 size=     256KiB time=00:00:03.96 bitrate= 528.7kbits/s speed=0.0508x elapsed=0:01:18.02    \nframe=  241 fps=3.1 q=53.0 size=     256KiB time=00:00:04.01 bitrate= 522.1kbits/s speed=0.0511x elapsed=0:01:18.57    \nframe=  244 fps=3.1 q=53.0 size=     256KiB time=00:00:04.06 bitrate= 515.7kbits/s speed=0.0514x elapsed=0:01:19.10    \nframe=  245 fps=3.1 q=53.0 size=     256KiB time=00:00:04.08 bitrate= 513.6kbits/s speed=0.0512x elapsed=0:01:19.70    \nframe=  247 fps=3.1 q=53.0 size=     256KiB time=00:00:04.11 bitrate= 509.4kbits/s speed=0.0513x elapsed=0:01:20.25    \nframe=  250 fps=3.1 q=53.0 size=     256KiB time=00:00:04.15 bitrate= 505.3kbits/s speed=0.0513x elapsed=0:01:20.82    \nframe=  253 fps=3.1 q=53.0 size=     256KiB time=00:00:04.21 bitrate= 497.3kbits/s speed=0.0518x elapsed=0:01:21.34    \nframe=  255 fps=3.1 q=54.0 size=     256KiB time=00:00:04.25 bitrate= 493.4kbits/s speed=0.0519x elapsed=0:01:21.90    \nframe=  256 fps=3.1 q=54.0 size=     256KiB time=00:00:04.26 bitrate= 491.5kbits/s speed=0.0517x elapsed=0:01:22.46    \nframe=  258 fps=3.1 q=54.0 size=     512KiB time=00:00:04.30 bitrate= 975.4kbits/s speed=0.0518x elapsed=0:01:23.03    \nframe=  261 fps=3.1 q=54.0 size=     512KiB time=00:00:04.35 bitrate= 964.2kbits/s speed=0.052x elapsed=0:01:23.59    \nframe=  263 fps=3.1 q=54.0 size=     512KiB time=00:00:04.38 bitrate= 956.9kbits/s speed=0.0521x elapsed=0:01:24.11    \nframe=  266 fps=3.1 q=55.0 size=     512KiB time=00:00:04.43 bitrate= 946.1kbits/s speed=0.0524x elapsed=0:01:24.62    \nframe=  268 fps=3.1 q=55.0 size=     512KiB time=00:00:04.46 bitrate= 939.0kbits/s speed=0.0525x elapsed=0:01:25.15    \nframe=  271 fps=3.2 q=53.0 size=     512KiB time=00:00:04.51 bitrate= 928.6kbits/s speed=0.0527x elapsed=0:01:25.70    \nframe=  275 fps=3.2 q=54.0 size=     512KiB time=00:00:04.56 bitrate= 918.5kbits/s speed=0.0529x elapsed=0:01:26.25    \nframe=  277 fps=3.2 q=55.0 size=     512KiB time=00:00:04.61 bitrate= 908.5kbits/s speed=0.0531x elapsed=0:01:26.91    \nframe=  280 fps=3.2 q=54.0 size=     512KiB time=00:00:04.65 bitrate= 902.0kbits/s speed=0.0532x elapsed=0:01:27.46    \nframe=  281 fps=3.2 q=44.0 size=     512KiB time=00:00:04.68 bitrate= 895.6kbits/s speed=0.0532x elapsed=0:01:28.04    \nframe=  284 fps=3.2 q=54.0 size=     512KiB time=00:00:04.73 bitrate= 886.1kbits/s speed=0.0534x elapsed=0:01:28.66    \nframe=  287 fps=3.2 q=54.0 size=     512KiB time=00:00:04.78 bitrate= 876.9kbits/s speed=0.0536x elapsed=0:01:29.26    \nframe=  289 fps=3.2 q=54.0 size=     512KiB time=00:00:04.81 bitrate= 870.8kbits/s speed=0.0536x elapsed=0:01:29.81    \nframe=  291 fps=3.2 q=55.0 size=     512KiB time=00:00:04.85 bitrate= 864.8kbits/s speed=0.0537x elapsed=0:01:30.32    \nframe=  292 fps=3.2 q=54.0 size=     512KiB time=00:00:04.86 bitrate= 861.8kbits/s speed=0.0536x elapsed=0:01:30.84    \nframe=  295 fps=3.2 q=53.0 size=     512KiB time=00:00:04.91 bitrate= 853.1kbits/s speed=0.0538x elapsed=0:01:31.37    \nframe=  299 fps=3.3 q=54.0 size=     512KiB time=00:00:04.96 bitrate= 844.5kbits/s speed=0.0541x elapsed=0:01:31.88    \nframe=  301 fps=3.3 q=54.0 size=     512KiB time=00:00:05.01 bitrate= 836.1kbits/s speed=0.0543x elapsed=0:01:32.45    \nframe=  303 fps=3.3 q=55.0 size=     512KiB time=00:00:05.05 bitrate= 830.6kbits/s speed=0.0543x elapsed=0:01:32.98    \nframe=  305 fps=3.3 q=44.0 size=     512KiB time=00:00:05.06 bitrate= 827.8kbits/s speed=0.0542x elapsed=0:01:33.51    \nframe=  307 fps=3.3 q=53.0 size=     512KiB time=00:00:05.11 bitrate= 819.7kbits/s speed=0.0543x elapsed=0:01:34.20    \nframe=  309 fps=3.3 q=53.0 size=     512KiB time=00:00:05.15 bitrate= 814.4kbits/s speed=0.0543x elapsed=0:01:34.78    \nframe=  311 fps=3.3 q=54.0 size=     512KiB time=00:00:05.18 bitrate= 809.2kbits/s speed=0.0544x elapsed=0:01:35.35    \nframe=  313 fps=3.3 q=54.0 size=     512KiB time=00:00:05.21 bitrate= 804.0kbits/s speed=0.0544x elapsed=0:01:35.92    \nframe=  316 fps=3.3 q=54.0 size=     512KiB time=00:00:05.25 bitrate= 798.9kbits/s speed=0.0544x elapsed=0:01:36.52    \nframe=  316 fps=3.3 q=54.0 size=     512KiB time=00:00:05.26 bitrate= 796.4kbits/s speed=0.0542x elapsed=0:01:37.12    \nframe=  318 fps=3.3 q=56.0 size=     512KiB time=00:00:05.30 bitrate= 791.4kbits/s speed=0.0543x elapsed=0:01:37.66    \nframe=  320 fps=3.3 q=54.0 size=     512KiB time=00:00:05.33 bitrate= 786.4kbits/s speed=0.0543x elapsed=0:01:38.26    \nframe=  322 fps=3.3 q=54.0 size=     512KiB time=00:00:05.36 bitrate= 781.5kbits/s speed=0.0543x elapsed=0:01:38.82    \nframe=  323 fps=3.2 q=44.0 size=     512KiB time=00:00:05.36 bitrate= 781.5kbits/s speed=0.054x elapsed=0:01:39.40    \nframe=  326 fps=3.3 q=55.0 size=     512KiB time=00:00:05.43 bitrate= 772.0kbits/s speed=0.0544x elapsed=0:01:39.95    \nframe=  328 fps=3.3 q=55.0 size=     512KiB time=00:00:05.46 bitrate= 767.3kbits/s speed=0.0544x elapsed=0:01:40.56    \nframe=  330 fps=3.3 q=56.0 size=     512KiB time=00:00:05.50 bitrate= 762.6kbits/s speed=0.0544x elapsed=0:01:41.11    \nframe=  332 fps=3.3 q=57.0 size=     512KiB time=00:00:05.53 bitrate= 758.0kbits/s speed=0.0544x elapsed=0:01:41.65    \nframe=  334 fps=3.3 q=57.0 size=     512KiB time=00:00:05.56 bitrate= 753.5kbits/s speed=0.0545x elapsed=0:01:42.17    \nframe=  335 fps=3.3 q=45.0 size=     512KiB time=00:00:05.58 bitrate= 751.2kbits/s speed=0.0544x elapsed=0:01:42.69    \nframe=  338 fps=3.3 q=57.0 size=     512KiB time=00:00:05.63 bitrate= 744.6kbits/s speed=0.0546x elapsed=0:01:43.20    \nframe=  340 fps=3.3 q=57.0 size=     512KiB time=00:00:05.66 bitrate= 740.2kbits/s speed=0.0546x elapsed=0:01:43.72    \nframe=  343 fps=3.3 q=58.0 size=     512KiB time=00:00:05.70 bitrate= 735.8kbits/s speed=0.0547x elapsed=0:01:44.23    \nframe=  345 fps=3.3 q=58.0 size=     512KiB time=00:00:05.75 bitrate= 729.4kbits/s speed=0.0549x elapsed=0:01:44.79    \nframe=  346 fps=3.3 q=58.0 size=     512KiB time=00:00:05.76 bitrate= 727.3kbits/s speed=0.0547x elapsed=0:01:45.38    \nframe=  348 fps=3.3 q=58.0 size=     512KiB time=00:00:05.80 bitrate= 723.2kbits/s speed=0.0547x elapsed=0:01:46.00    \nframe=  350 fps=3.3 q=56.0 size=     512KiB time=00:00:05.83 bitrate= 719.0kbits/s speed=0.0547x elapsed=0:01:46.58    \nframe=  352 fps=3.3 q=57.0 size=     512KiB time=00:00:05.86 bitrate= 714.9kbits/s speed=0.0548x elapsed=0:01:47.09    \nframe=  355 fps=3.3 q=57.0 size=     512KiB time=00:00:05.91 bitrate= 708.9kbits/s speed=0.055x elapsed=0:01:47.61    \nframe=  357 fps=3.3 q=57.0 size=     512KiB time=00:00:05.95 bitrate= 704.9kbits/s speed=0.055x elapsed=0:01:48.13    \nframe=  358 fps=3.3 q=57.0 size=     512KiB time=00:00:05.96 bitrate= 703.0kbits/s speed=0.0549x elapsed=0:01:48.71    \nframe=  360 fps=3.3 q=57.0 size=     512KiB time=00:00:06.00 bitrate= 699.1kbits/s speed=0.0549x elapsed=0:01:49.31    \nframe=  362 fps=3.3 q=55.0 size=     512KiB time=00:00:06.03 bitrate= 695.2kbits/s speed=0.0549x elapsed=0:01:49.86    \nframe=  365 fps=3.3 q=55.0 size=     512KiB time=00:00:06.08 bitrate= 689.5kbits/s speed=0.0551x elapsed=0:01:50.39    \nframe=  368 fps=3.3 q=56.0 size=     512KiB time=00:00:06.11 bitrate= 685.7kbits/s speed=0.0551x elapsed=0:01:50.98    \nframe=  370 fps=3.3 q=56.0 size=     512KiB time=00:00:06.16 bitrate= 680.2kbits/s speed=0.0553x elapsed=0:01:51.56    \nframe=  372 fps=3.3 q=58.0 size=     512KiB time=00:00:06.20 bitrate= 676.5kbits/s speed=0.0553x elapsed=0:01:52.10    \nframe=  375 fps=3.3 q=56.0 size=     512KiB time=00:00:06.25 bitrate= 671.1kbits/s speed=0.0555x elapsed=0:01:52.66    \nframe=  377 fps=3.3 q=56.0 size=     512KiB time=00:00:06.28 bitrate= 667.5kbits/s speed=0.0555x elapsed=0:01:53.17    \nframe=  382 fps=3.4 q=56.0 size=     512KiB time=00:00:06.36 bitrate= 658.8kbits/s speed=0.056x elapsed=0:01:53.71    \nframe=  384 fps=3.4 q=56.0 size=     512KiB time=00:00:06.40 bitrate= 655.4kbits/s speed=0.056x elapsed=0:01:54.24    \nframe=  384 fps=3.3 q=56.0 size=     512KiB time=00:00:06.40 bitrate= 655.4kbits/s speed=0.0558x elapsed=0:01:54.76    \nframe=  386 fps=3.3 q=51.0 size=     768KiB time=00:00:06.43 bitrate= 977.9kbits/s speed=0.0558x elapsed=0:01:55.32    \nframe=  389 fps=3.4 q=53.0 size=     768KiB time=00:00:06.48 bitrate= 970.4kbits/s speed=0.056x elapsed=0:01:55.86    \nframe=  392 fps=3.4 q=54.0 size=     768KiB time=00:00:06.53 bitrate= 963.0kbits/s speed=0.0561x elapsed=0:01:56.40    \nframe=  395 fps=3.4 q=54.0 size=     768KiB time=00:00:06.58 bitrate= 955.7kbits/s speed=0.0563x elapsed=0:01:56.97    \nframe=  396 fps=3.4 q=54.0 size=     768KiB time=00:00:06.60 bitrate= 953.3kbits/s speed=0.0562x elapsed=0:01:57.48    \nframe=  400 fps=3.4 q=54.0 size=     768KiB time=00:00:06.66 bitrate= 943.7kbits/s speed=0.0565x elapsed=0:01:57.99    \nframe=  403 fps=3.4 q=55.0 size=     768KiB time=00:00:06.71 bitrate= 936.7kbits/s speed=0.0567x elapsed=0:01:58.52    \nframe=  406 fps=3.4 q=55.0 size=     768KiB time=00:00:06.76 bitrate= 929.8kbits/s speed=0.0568x elapsed=0:01:59.04    \nframe=  408 fps=3.4 q=56.0 size=     768KiB time=00:00:06.80 bitrate= 925.2kbits/s speed=0.0569x elapsed=0:01:59.55    \nframe=  411 fps=3.4 q=53.0 size=     768KiB time=00:00:06.83 bitrate= 920.7kbits/s speed=0.0569x elapsed=0:02:00.07    \nframe=  413 fps=3.4 q=54.0 size=     768KiB time=00:00:06.88 bitrate= 914.0kbits/s speed=0.0571x elapsed=0:02:00.64    \nframe=  416 fps=3.4 q=55.0 size=     768KiB time=00:00:06.93 bitrate= 907.4kbits/s speed=0.0572x elapsed=0:02:01.17    \nframe=  419 fps=3.4 q=55.0 size=     768KiB time=00:00:06.98 bitrate= 900.9kbits/s speed=0.0574x elapsed=0:02:01.68    \nframe=  420 fps=3.4 q=55.0 size=     768KiB time=00:00:07.00 bitrate= 898.8kbits/s speed=0.0573x elapsed=0:02:02.20    \nframe=  423 fps=3.4 q=54.0 size=     768KiB time=00:00:07.05 bitrate= 892.4kbits/s speed=0.0574x elapsed=0:02:02.72    \nframe=  425 fps=3.4 q=54.0 size=     768KiB time=00:00:07.08 bitrate= 888.2kbits/s speed=0.0575x elapsed=0:02:03.28    \nframe=  428 fps=3.5 q=54.0 size=     768KiB time=00:00:07.13 bitrate= 882.0kbits/s speed=0.0576x elapsed=0:02:03.81    \nframe=  431 fps=3.5 q=54.0 size=     768KiB time=00:00:07.18 bitrate= 875.8kbits/s speed=0.0578x elapsed=0:02:04.35    \nframe=  432 fps=3.5 q=54.0 size=     768KiB time=00:00:07.20 bitrate= 873.8kbits/s speed=0.0576x elapsed=0:02:04.90    \nframe=  435 fps=3.5 q=52.0 size=     768KiB time=00:00:07.25 bitrate= 867.8kbits/s speed=0.0578x elapsed=0:02:05.47    \nframe=  437 fps=3.5 q=51.0 size=     768KiB time=00:00:07.28 bitrate= 863.8kbits/s speed=0.0578x elapsed=0:02:06.01    \nframe=  440 fps=3.5 q=52.0 size=     768KiB time=00:00:07.33 bitrate= 857.9kbits/s speed=0.058x elapsed=0:02:06.53    \nframe=  442 fps=3.5 q=53.0 size=     768KiB time=00:00:07.36 bitrate= 854.0kbits/s speed=0.058x elapsed=0:02:07.11    \nframe=  444 fps=3.5 q=53.0 size=     768KiB time=00:00:07.40 bitrate= 850.2kbits/s speed=0.058x elapsed=0:02:07.62    \nframe=  446 fps=3.5 q=56.0 size=     768KiB time=00:00:07.43 bitrate= 846.4kbits/s speed=0.058x elapsed=0:02:08.16    \nframe=  449 fps=3.5 q=54.0 size=     768KiB time=00:00:07.48 bitrate= 840.7kbits/s speed=0.0582x elapsed=0:02:08.68    \nframe=  453 fps=3.5 q=55.0 size=     768KiB time=00:00:07.55 bitrate= 833.3kbits/s speed=0.0584x elapsed=0:02:09.23    \nframe=  456 fps=3.5 q=55.0 size=     768KiB time=00:00:07.60 bitrate= 827.8kbits/s speed=0.0586x elapsed=0:02:09.74    \nframe=  460 fps=3.5 q=54.0 size=     768KiB time=00:00:07.66 bitrate= 820.6kbits/s speed=0.0589x elapsed=0:02:10.27    \nframe=  463 fps=3.5 q=55.0 size=     768KiB time=00:00:07.71 bitrate= 815.3kbits/s speed=0.059x elapsed=0:02:10.79    \nframe=  468 fps=3.6 q=56.0 size=     768KiB time=00:00:07.78 bitrate= 808.3kbits/s speed=0.0593x elapsed=0:02:11.31    \nframe=  469 fps=3.6 q=41.0 size=     768KiB time=00:00:07.81 bitrate= 804.9kbits/s speed=0.0593x elapsed=0:02:11.91    \nframe=  471 fps=3.6 q=54.0 size=     768KiB time=00:00:07.85 bitrate= 801.5kbits/s speed=0.0593x elapsed=0:02:12.43    \nframe=  474 fps=3.6 q=56.0 size=     768KiB time=00:00:07.90 bitrate= 796.4kbits/s speed=0.0594x elapsed=0:02:13.01    \nframe=  478 fps=3.6 q=55.0 size=     768KiB time=00:00:07.96 bitrate= 789.7kbits/s speed=0.0596x elapsed=0:02:13.61    \nframe=  480 fps=3.6 q=56.0 size=     768KiB time=00:00:08.00 bitrate= 786.4kbits/s speed=0.0596x elapsed=0:02:14.20    \nframe=  482 fps=3.6 q=56.0 size=     768KiB time=00:00:08.03 bitrate= 783.2kbits/s speed=0.0596x elapsed=0:02:14.76    \nframe=  485 fps=3.6 q=55.0 size=     768KiB time=00:00:08.08 bitrate= 778.3kbits/s speed=0.0598x elapsed=0:02:15.27    \nframe=  488 fps=3.6 q=56.0 size=     768KiB time=00:00:08.13 bitrate= 773.5kbits/s speed=0.0599x elapsed=0:02:15.85    \nframe=  492 fps=3.6 q=56.0 size=     768KiB time=00:00:08.18 bitrate= 768.8kbits/s speed=0.06x elapsed=0:02:16.45    \nframe=  493 fps=3.6 q=41.0 size=     768KiB time=00:00:08.20 bitrate= 767.3kbits/s speed=0.0598x elapsed=0:02:17.04    \nframe=  496 fps=3.6 q=56.0 size=     768KiB time=00:00:08.25 bitrate= 762.6kbits/s speed=0.0599x elapsed=0:02:17.61    \nframe=  499 fps=3.6 q=57.0 size=     768KiB time=00:00:08.30 bitrate= 758.0kbits/s speed=0.0601x elapsed=0:02:18.12    \nframe=  502 fps=3.6 q=57.0 size=     768KiB time=00:00:08.36 bitrate= 752.0kbits/s speed=0.0603x elapsed=0:02:18.74    \nframe=  505 fps=3.6 q=56.0 size=     768KiB time=00:00:08.40 bitrate= 749.0kbits/s speed=0.0603x elapsed=0:02:19.24    \nframe=  508 fps=3.6 q=56.0 size=     768KiB time=00:00:08.46 bitrate= 743.1kbits/s speed=0.0605x elapsed=0:02:19.84    \nframe=  512 fps=3.6 q=58.0 size=     768KiB time=00:00:08.53 bitrate= 737.3kbits/s speed=0.0608x elapsed=0:02:20.36    \nframe=  512 fps=3.6 q=58.0 size=     768KiB time=00:00:08.53 bitrate= 737.3kbits/s speed=0.0606x elapsed=0:02:20.90    \nframe=  514 fps=3.6 q=57.0 size=    1024KiB time=00:00:08.56 bitrate= 979.2kbits/s speed=0.0605x elapsed=0:02:21.53    \nframe=  517 fps=3.6 q=56.0 size=    1024KiB time=00:00:08.61 bitrate= 973.5kbits/s speed=0.0606x elapsed=0:02:22.19    \nframe=  521 fps=3.6 q=57.0 size=    1024KiB time=00:00:08.68 bitrate= 966.1kbits/s speed=0.0608x elapsed=0:02:22.74    \nframe=  523 fps=3.6 q=57.0 size=    1024KiB time=00:00:08.71 bitrate= 962.4kbits/s speed=0.0608x elapsed=0:02:23.33    \nframe=  525 fps=3.6 q=58.0 size=    1024KiB time=00:00:08.75 bitrate= 958.7kbits/s speed=0.0608x elapsed=0:02:23.84    \nframe=  528 fps=3.7 q=56.0 size=    1024KiB time=00:00:08.80 bitrate= 953.3kbits/s speed=0.0609x elapsed=0:02:24.39    \nframe=  532 fps=3.7 q=57.0 size=    1024KiB time=00:00:08.86 bitrate= 946.1kbits/s speed=0.0612x elapsed=0:02:24.93    \nframe=  534 fps=3.7 q=58.0 size=    1024KiB time=00:00:08.90 bitrate= 942.5kbits/s speed=0.0611x elapsed=0:02:25.55    \nframe=  536 fps=3.7 q=57.0 size=    1024KiB time=00:00:08.93 bitrate= 939.0kbits/s speed=0.0611x elapsed=0:02:26.10    \nframe=  541 fps=3.7 q=57.0 size=    1024KiB time=00:00:09.01 bitrate= 930.3kbits/s speed=0.0615x elapsed=0:02:26.62    \nframe=  544 fps=3.7 q=57.0 size=    1024KiB time=00:00:09.06 bitrate= 925.2kbits/s speed=0.0616x elapsed=0:02:27.15    \nframe=  546 fps=3.7 q=57.0 size=    1024KiB time=00:00:09.10 bitrate= 921.8kbits/s speed=0.0616x elapsed=0:02:27.67    \nframe=  548 fps=3.7 q=57.0 size=    1024KiB time=00:00:09.13 bitrate= 918.5kbits/s speed=0.0616x elapsed=0:02:28.20    \nframe=  551 fps=3.7 q=56.0 size=    1024KiB time=00:00:09.18 bitrate= 913.5kbits/s speed=0.0617x elapsed=0:02:28.76    \nframe=  555 fps=3.7 q=56.0 size=    1024KiB time=00:00:09.25 bitrate= 906.9kbits/s speed=0.062x elapsed=0:02:29.28    \nframe=  558 fps=3.7 q=56.0 size=    1024KiB time=00:00:09.30 bitrate= 902.0kbits/s speed=0.0621x elapsed=0:02:29.80    \nframe=  563 fps=3.7 q=54.0 size=    1024KiB time=00:00:09.38 bitrate= 894.0kbits/s speed=0.0624x elapsed=0:02:30.31    \nframe=  568 fps=3.8 q=56.0 size=    1024KiB time=00:00:09.46 bitrate= 886.1kbits/s speed=0.0628x elapsed=0:02:30.84    \nframe=  570 fps=3.8 q=56.0 size=    1024KiB time=00:00:09.50 bitrate= 883.0kbits/s speed=0.0628x elapsed=0:02:31.38    \nframe=  575 fps=3.8 q=55.0 size=    1024KiB time=00:00:09.58 bitrate= 875.3kbits/s speed=0.0631x elapsed=0:02:31.92    \nframe=  576 fps=3.8 q=56.0 size=    1024KiB time=00:00:09.60 bitrate= 873.8kbits/s speed=0.063x elapsed=0:02:32.45    \nframe=  576 fps=3.8 q=56.0 size=    1024KiB time=00:00:09.60 bitrate= 873.8kbits/s speed=0.0628x elapsed=0:02:32.97    \nframe=  576 fps=3.8 q=56.0 size=    1024KiB time=00:00:09.60 bitrate= 873.8kbits/s speed=0.0625x elapsed=0:02:33.49    \nframe=  576 fps=3.7 q=56.0 size=    1024KiB time=00:00:09.60 bitrate= 873.8kbits/s speed=0.0623x elapsed=0:02:34.03    \nframe=  576 fps=3.7 q=56.0 size=    1024KiB time=00:00:09.60 bitrate= 873.8kbits/s speed=0.0621x elapsed=0:02:34.55    \n[out#0/webm @ 000001f2e7349a00] video:1521KiB audio:0KiB subtitle:0KiB other streams:0KiB global headers:0KiB muxing overhead: 0.311043%\nframe=  600 fps=3.9 q=55.0 Lsize=    1525KiB time=00:00:10.00 bitrate=1249.5kbits/s speed=0.0645x elapsed=0:02:35.11    \n",
  "seconds": 155.49409937858582,
  "probe_out": {}
}